<svg width="40" height="40" viewBox="0 0 40 40" fill="none" xmlns="http://www.w3.org/2000/svg">
<rect x="2.5" y="2.5" width="35" height="35" fill="#1271CD"/>
<path d="M10.6549 20.6998L16.2531 8.18726H21.5869L23.4824 12.431V8.18726H30.1385L31.2405 11.4685L32.3866 8.18726H37.5V9.67484H33.4447L31.2847 15.6248L29.0366 9.67484H24.8931V19.2561L20.6613 9.67484H17.179L12.9031 19.2561H15.8565L16.6059 17.3748H21.1021L21.8956 19.2561H24.8931H27.5379V12.6061L30.0064 19.2561H32.3868L34.9434 12.6061V19.2561H37.5V20.6998H34.0618L31.1966 23.7623L28.3754 20.6998H24.9371H16.65V30.3248H24.9371H28.3754L31.1966 27.2623L34.0618 30.3248H37.5V31.7685H33.3564L31.2405 29.406L28.9924 31.7685H15.107V20.6998H10.6549Z" fill="white"/>
<path d="M37.5 30.3248V28.354L34.8992 25.556L37.5 22.8314V20.6998L32.9157 25.5561L37.5 30.3248Z" fill="white"/>
<path d="M24.9371 30.3248V28.1811H19.2507V26.6498H24.7608V24.5061H19.2507V22.9748H24.9371V20.6998L29.5215 25.5561L24.9371 30.3248Z" fill="white"/>
<path d="M18.8981 12.0373L17.5316 15.2311H20.2205L18.8981 12.0373Z" fill="white"/>
</svg>
