<svg width="40" height="40" viewBox="0 0 40 40" fill="none" xmlns="http://www.w3.org/2000/svg">
<path d="M2.5 20C2.5 10.335 10.335 2.5 20 2.5C29.665 2.5 37.5 10.335 37.5 20C37.5 29.665 29.665 37.5 20 37.5C10.335 37.5 2.5 29.665 2.5 20Z" fill="#172A73"/>
<path d="M6.96802 12.1808V12.9255L9.69044 13.3541C11.6195 13.6578 13.1741 15.1077 13.6236 17.0222L16.8105 30.5969C16.8894 30.9329 17.1871 31.1701 17.5297 31.1701H22.0018C22.2968 31.1701 22.5636 30.9934 22.6804 30.7204L30.3948 12.7006C30.5001 12.4548 30.3212 12.1808 30.0555 12.1808H25.9351C25.6376 12.1808 25.3691 12.3606 25.2538 12.6369L20.086 25.0265L18.0245 14.0012C17.8271 12.9455 16.9119 12.1808 15.8457 12.1808H6.96802Z" fill="white"/>
</svg>
